# xmcd CD database file
#
# Track frame offsets:
#	150
#	14625
#	31430
#	46805
#	60755
#	76291
#	93841
#	110214
#	130397
#	143522
#	160097
#	176822
#
# Disc length: 2533 seconds
#
# Revision: 6
# Processed by: cddbd v1.5.2PL0 Copyright (c) Steve Scherf et al.
# Submitted via: CDex 1.51
#
DISCID=9609e30c
DTITLE=Luceila Meira - A Cor
DYEAR=2008
DGENRE=Blues
TTITLE0=LUCEILA MEIRA - A cor
TTITLE1=LUCEILA MEIRA - Prazer e Sofrer
TTITLE2=LUCEILA MEIRA - Marisa Mutante
TTITLE3=LUCEILA MEIRA - Outras cores
TTITLE4=LUCEILA MEIRA - O tempo todo você
TTITLE5=LUCEILA MEIRA - Nós nus amamos
TTITLE6=LUCEILA MEIRA - Divina Arte
TTITLE7=LUCEILA MEIRA - Delirios
TTITLE8=LUCEILA MEIRA - D'outro Lado
TTITLE9=LUCEILA MEIRA - Vontade de te ver
TTITLE10=LUCEILA MEIRA - Sessão
TTITLE11=LUCEILA MEIRA - Quis Viver
EXTD=YEAR: 2008
EXTT0=
EXTT1=
EXTT2=
EXTT3=
EXTT4=
EXTT5=
EXTT6=
EXTT7=
EXTT8=
EXTT9=
EXTT10=
EXTT11=
PLAYORDER=
